<svg xmlns="http://www.w3.org/2000/svg" width="32" height="32" viewBox="150 120 760 760">
  <defs>
    <linearGradient id="c" x1="0" y1="0" x2="1" y2="1">
      <stop offset="0" stop-color="#ffffff"/><stop offset="0.28" stop-color="#9da1a6"/><stop offset="0.5" stop-color="#ffffff"/><stop offset="0.72" stop-color="#666a70"/><stop offset="1" stop-color="#f8f8f8"/>
    </linearGradient>
    <linearGradient id="s" x1="0" y1="0" x2="1" y2="1">
      <stop offset="0" stop-color="#ffffff"/><stop offset="0.45" stop-color="#8c9197"/><stop offset="0.7" stop-color="#ffffff"/><stop offset="1" stop-color="#3f4348"/>
    </linearGradient>
  </defs>
  <rect x="150" y="120" width="760" height="760" fill="#000000"/>
  <path d="M180 650 C265 430 535 245 820 260 C870 263 889 291 850 322 C760 392 650 390 595 382" fill="none" stroke="url(#c)" stroke-width="40" stroke-linecap="round" stroke-linejoin="round"/>
  <path d="M835 322 C760 365 660 430 520 545 C390 650 280 727 205 715 C170 709 166 686 180 650" fill="none" stroke="url(#c)" stroke-width="22" stroke-linecap="round"/>
  <path d="M530 350 C545 405 566 433 620 450 C566 459 537 481 520 535 C505 485 480 461 425 449 C479 435 508 408 530 350 Z" fill="url(#s)" stroke="#f7f7f7" stroke-width="3"/>
  <path d="M530 350 L553 285 L542 405 Z" fill="url(#s)"/>
  <path d="M620 450 L720 449 L555 466 Z" fill="url(#s)"/>
  <path d="M520 535 L535 625 L505 482 Z" fill="url(#s)"/>
  <path d="M425 449 L330 462 L495 433 Z" fill="url(#s)"/>
</svg>
